<?xml version="1.0" encoding="utf-8"?>
<!-- Generator: Adobe Illustrator 27.5.0, SVG Export Plug-In . SVG Version: 6.00 Build 0)  -->
<svg version="1.1" id="Layer_2_00000153696618785654217660000004737355905606784657_"
	 xmlns="http://www.w3.org/2000/svg" xmlns:xlink="http://www.w3.org/1999/xlink" x="0px" y="0px" viewBox="0 0 87.1 31.8"
	 style="enable-background:new 0 0 87.1 31.8;" xml:space="preserve">
<style type="text/css">
	.st0{enable-background:new    ;}
	.st1{fill:#111111;}
</style>
<g id="Layer_1-2">
	<g>
		<g class="st0">
			<path class="st1" d="M63.4,17.5C63.4,17.5,63.4,17.5,63.4,17.5c0-0.1,0-0.2,0-0.2C63.4,17.4,63.4,17.5,63.4,17.5z"/>
		</g>
		<g class="st0">
			<path class="st1" d="M85.1,10c-1.3-0.1-3,0-5.1,0.3l-0.6,0.1l0.7-1c0.4-0.6,0.8-1.1,1-1.6c0.2-0.4,0.4-0.9,0.5-1.5
				c0.3-1.1,0.2-1.7-0.1-1.7c-0.1,0-0.3,0.2-0.5,0.6c-0.2,0.4-0.7,1.2-1.3,2.4l-1.5,3L75.7,11c-1.7,0.3-3.1,0.6-4.3,0.9
				s-1.8,0.5-1.9,0.6c0,0.1,0,0.1,0,0.2c0,0.2,0.5,0.2,1.3,0c0.6-0.2,1.7-0.4,3.2-0.7c1.5-0.3,2.5-0.5,2.9-0.6c0.3,0,0.5-0.1,0.6,0
				c0,0,0,0.1-0.1,0.2c-0.2,0.2-0.2,0.4-0.2,0.5c0,0.2-0.2,0.7-0.5,1.4c-0.3,0.7-0.6,1.4-0.9,2.1c0,0-0.1,0-0.2,0
				c-0.4,0-0.7,0-1-0.1c-0.2-0.1-0.4-0.3-0.6-0.7c-0.2-0.4-0.5-0.6-0.7-0.6c-0.2,0-0.5,0.2-0.9,0.5l-0.6,0.6v-0.7
				c0-0.5-0.1-0.7-0.2-0.8c-0.2-0.1-0.3,0-0.4,0.1c-0.1,0.1-0.2,0.3-0.1,0.5c0,0.2,0,0.7-0.2,1.6c0,0-0.1,0-0.2,0.1
				c-0.2,0.1-0.3,0.2-0.5,0.3c-1.1,0.7-1.9,1.1-2.4,1.3c-0.6,0.2-0.9,0.1-1.1-0.1c-0.2-0.2-0.1-0.5,0-0.8c0.2-0.4,0.4-0.8,0.8-1.1
				c0.4-0.4,0.7-0.7,0.7-0.8c0-0.1,0-0.1,0-0.2c-0.1-0.2-0.5-0.1-1,0.4l-0.7,0.5l-0.6-0.2c-0.3-0.1-0.5-0.1-0.6-0.2
				c-0.1,0-0.3,0-0.6,0.1c-0.4,0.1-0.8,0.3-1.1,0.7c-0.4,0.3-0.6,0.7-0.7,1.1c0,0.1,0,0.1,0,0.2c-0.3,0.1-0.8,0.2-1.5,0.5
				c-2,0.7-3.6,1-5,0.9c-1.4-0.1-2.6-0.6-3.6-1.5c-0.1-0.2-0.3-0.2-0.3-0.3s-0.1-0.1-0.2-0.2c-0.1-0.1-0.1-0.2-0.2-0.2
				c0,0,0-0.1-0.1-0.2c0-0.1,0-0.2,0-0.3c0,0,0.1-0.2,0.1-0.4c0.1-0.2,0.1-0.3,0.2-0.5c0-0.1,0.1-0.3,0.2-0.6
				c0.4-1.1,0.7-1.7,0.9-1.9c0.4-0.4,1.4-1.2,3.1-2.3c1.7-1.2,3.1-2.1,4.1-2.7c1-0.6,2.1-1.2,3.5-1.8c1.3-0.6,2.3-1.1,2.9-1.2
				c0.7-0.2,1.3-0.4,1.7-0.4c0.3,0,0.4,0,0.5,0.1c0,0,0.1,0.1,0.1,0.3c0,0.2-0.2,0.6-0.7,1.1s-0.7,0.8-0.7,0.9
				c0.1,0.1,0.3,0.2,0.5,0.1c0.2-0.1,0.5-0.3,0.8-0.5c0.4-0.4,0.6-0.7,0.8-1C70,4.6,70.1,4.4,70,4.2c-0.1-0.2-0.2-0.4-0.5-0.5
				s-0.6-0.2-1-0.2c-0.4,0-0.9,0.1-1.5,0.3c-1.4,0.5-3.3,1.3-5.7,2.6C59,7.6,56.9,9,54.9,10.5c-0.7,0.5-1,0.7-1,0.7
				c0,0,0.1-0.5,0.4-1.4c0.3-0.9,0.7-2,1.1-3.3c0.9-2.8,1.5-4.5,1.7-5.2c0.2-0.7,0.2-1.1,0.1-1.2C57,0,56.9,0,56.8,0.2
				c-0.1,0.2-0.3,0.6-0.5,1.3c-0.2,0.8-0.8,2.4-1.6,4.9c-0.8,2.4-1.4,4-1.7,4.8c-0.1,0.3-0.3,0.7-0.5,1c-0.2,0.3-0.4,0.6-0.5,0.8
				c-0.4,0.5-0.7,1-0.9,1.4c-0.2,0.4-0.2,0.8-0.2,1.3c0,0.6-0.1,1.1-0.3,1.5c-0.2,0.6-0.6,1.5-1,2.6c-0.4,1.2-0.7,2-0.9,2.7
				c-0.2,0.7-0.3,1.2-0.3,1.8c0,0.5,0,0.9,0.1,1.2c0.1,0.1,0.2,0.2,0.3,0.2c0.2,0,0.3,0,0.4,0c0.1,0,0.2-0.1,0.2-0.2
				c0-0.1,0-0.1-0.1-0.2c0-0.1-0.1-0.1-0.2-0.1c-0.3-0.1-0.3-0.8,0.1-2.2c0.3-1.3,0.9-3,1.7-5l0.4-0.9l0.7,0.7
				c1.1,1,2.5,1.6,4.3,1.7c1.8,0.1,3.7-0.3,5.9-1.2c0.2-0.1,0.3-0.1,0.4-0.2c0,0.1,0.1,0.1,0.1,0.2c0.1,0.1,0.2,0.1,0.4,0.1
				c0.2,0,0.4,0,0.6-0.1c0.2-0.1,0.5-0.3,0.9-0.6l1-0.7v0.4c0,0.5,0.2,0.9,0.7,1.2c0.3,0.1,0.6,0.2,1,0.1s0.8-0.2,1.3-0.5
				c0.5-0.3,1-0.5,1.4-0.8c0.2-0.1,0.4-0.3,0.5-0.4c-0.2,1-0.3,1.5-0.3,1.6c0,0.1,0.1,0.2,0.2,0.2c0.2,0,0.6-0.5,1-1.5
				c0.2-0.4,0.4-0.8,0.6-1.1c0.2-0.4,0.4-0.6,0.5-0.7c0.2-0.2,0.4-0.3,0.4-0.3c0,0,0.1,0,0.2,0.2c0.2,0.4,0.5,0.6,0.7,0.8
				c0.2,0.2,0.5,0.3,0.8,0.3c0.2,0,0.5,0,0.6,0c-0.4,1.1-0.8,2.3-1.1,3.4c-0.5,2-0.7,3.3-0.5,4.1c0,0.1,0.1,0.2,0.1,0.3
				c0.1,0,0.1,0.1,0.3,0c0.1,0,0.2-0.1,0.2-0.1c0-0.1,0-0.2,0-0.5c0-0.6,0.1-1.5,0.3-2.6c0.2-1.1,0.6-2.3,1-3.6
				c0.3-0.8,0.8-1.9,1.5-3.5c0.7-1.6,1.1-2.5,1.2-2.6c0.1-0.1,0.8-0.2,2.1-0.4c1.2-0.1,2.3-0.2,3.2-0.2c0.7,0,1.2,0,1.5,0
				c0.3,0,0.6,0.1,0.8,0.2c0.2,0.1,0.4,0.2,0.5,0.2c0.1,0,0.2,0,0.3,0c0,0,0.1-0.1,0.1-0.2C87.1,10.4,86.4,10.1,85.1,10z M65.6,16.1
				c0,0-0.1,0.1-0.3,0.3c-0.2,0.2-0.5,0.3-0.7,0.5c-0.6,0.5-1,0.7-1.1,0.7c0,0-0.1,0-0.1,0c0,0,0,0,0-0.1v0c0,0,0-0.1,0-0.2v0
				c0-0.1,0.1-0.2,0.3-0.4c0.3-0.4,0.6-0.7,1-0.9c0.2-0.1,0.5-0.2,0.8-0.1C65.6,16,65.7,16,65.6,16.1z"/>
		</g>
		<g>
			<g>
				<path class="st1" d="M7.8,18.1v1.4H5.7c0,0-2.6,0-2.9-2.7v-5.2H0v-1.4h7.5v1.4H4.3v4.6c0,2,1.9,1.9,1.9,1.9S7.8,18.1,7.8,18.1z"
					/>
			</g>
			<g>
				<path class="st1" d="M12.5,10.2H8.3v12.4h1.5v-3.1h2.7c2.4,0,4.4-2.1,4.4-4.6S14.9,10.2,12.5,10.2z M12.5,18.1H9.8v-6.4h2.7
					c1.6,0.1,2.8,1.5,2.8,3.2S14,17.9,12.5,18.1z"/>
			</g>
			<g>
				<path class="st1" d="M42.2,10.2c-2.5,0-4.4,2.1-4.4,4.6s2,4.6,4.4,4.6h2.7c-0.1,1.8-1.9,1.7-1.9,1.7h-1.6v1.4h2.1
					c0,0,0.7,0,1.4-0.4c0.7-0.4,1.3-1,1.5-2.3v-9.7L42.2,10.2L42.2,10.2z M44.9,18.1h-2.7c-1.6-0.1-2.8-1.5-2.8-3.2s1.2-3.1,2.8-3.2
					h2.7C44.9,11.7,44.9,18.1,44.9,18.1z"/>
			</g>
			<g>
				<path class="st1" d="M22.7,10.2c-2.7,0-4.9,2.1-4.9,4.6s2.2,4.6,4.9,4.6s4.9-2.1,4.9-4.6S25.4,10.2,22.7,10.2z M22.7,18
					c-1.8,0-3.3-1.4-3.3-3.1s1.5-3.1,3.3-3.1s3.3,1.4,3.3,3.1S24.5,18,22.7,18z"/>
			</g>
			<g>
				<path class="st1" d="M33.5,18c-1.7,0-3.1-1.4-3.1-3.1s1.4-3.1,3.1-3.1c1,0,2,0.5,2.5,1.3l1.2-0.9c-0.8-1.2-2.2-1.9-3.8-1.9
					c-2.6,0-4.6,2.1-4.6,4.6s2.1,4.6,4.6,4.6c1.5,0,2.9-0.7,3.7-1.9L36,16.7C35.4,17.5,34.5,18,33.5,18z"/>
			</g>
			<g>
				<ellipse class="st1" cx="20.5" cy="8.6" rx="0.8" ry="0.8"/>
			</g>
			<g>
				<ellipse class="st1" cx="24.6" cy="8.6" rx="0.8" ry="0.8"/>
			</g>
			<g>
				<ellipse class="st1" cx="36.8" cy="20.7" rx="0.8" ry="0.8"/>
			</g>
			<g class="st0">
				<path class="st1" d="M11.4,20.5h-0.3v0.9H11v-0.9h-0.3v-0.1h0.8V20.5z"/>
				<path class="st1" d="M12,21.3c-0.1,0.1-0.1,0.1-0.2,0.1c-0.2,0-0.2-0.1-0.2-0.3v-0.5h0.1v0.5c0,0.1,0,0.1,0,0.1c0,0,0.1,0,0.1,0
					c0.1,0,0.1,0,0.2-0.1v-0.5h0.1v0.7L12,21.3L12,21.3z M11.8,20.6h-0.1v-0.1h0.1V20.6z M12,20.6h-0.1v-0.1H12V20.6z"/>
				<path class="st1" d="M12.7,20.8C12.7,20.8,12.6,20.8,12.7,20.8c-0.1,0-0.2,0-0.2,0.1v0.5h-0.1v-0.7h0.1v0.1
					c0.1-0.1,0.1-0.1,0.2-0.1c0,0,0,0,0.1,0V20.8z"/>
				<path class="st1" d="M13.4,21.4h-0.1L13,21.1l-0.1,0.1v0.3h-0.1v-1h0.1V21l0.3-0.3h0.2L13.1,21L13.4,21.4z"/>
				<path class="st1" d="M13.8,20.4h0.4c0.1,0,0.1,0,0.2,0c0.1,0,0.1,0,0.1,0.1s0,0.1,0,0.2c0,0.1,0,0.2-0.1,0.2
					C14.4,21,14.3,21,14.2,21H14v0.4h-0.1V20.4z M14,20.9h0.2c0.1,0,0.1,0,0.2,0s0.1-0.1,0.1-0.1c0,0,0-0.1,0-0.1c0,0,0-0.1-0.1-0.1
					c0,0-0.1,0-0.1,0H14V20.9z"/>
				<path class="st1" d="M15,21.4c-0.2,0-0.3-0.1-0.3-0.2h0.1c0,0.1,0.1,0.1,0.2,0.1c0.1,0,0.1,0,0.1,0c0,0,0-0.1,0-0.1s0-0.1,0-0.1
					c0,0-0.1,0-0.2-0.1s-0.1,0-0.2-0.1c0,0-0.1-0.1-0.1-0.1c0-0.1,0-0.1,0.1-0.2c0,0,0.1-0.1,0.2-0.1c0.2,0,0.3,0.1,0.3,0.2h-0.1
					c0-0.1-0.1-0.1-0.1-0.1c0,0-0.1,0-0.1,0c0,0,0,0,0,0.1c0,0,0,0.1,0,0.1c0,0,0.1,0,0.2,0.1s0.1,0,0.2,0.1c0,0,0.1,0.1,0.1,0.1
					c0,0.1,0,0.1-0.1,0.2C15.1,21.4,15.1,21.4,15,21.4z"/>
				<path class="st1" d="M15.5,20.5h-0.1v-0.1h0.1V20.5z M15.5,21.4h-0.1v-0.7h0.1V21.4z"/>
				<path class="st1" d="M16.3,21.4h-0.1l-0.2-0.4l-0.1,0.1v0.3h-0.1v-1h0.1V21l0.3-0.3h0.2L16,21L16.3,21.4z"/>
				<path class="st1" d="M16.7,20.7c0.1,0,0.2,0,0.2,0.1c0.1,0.1,0.1,0.2,0.1,0.3c0,0.1,0,0.2-0.1,0.3c-0.1,0.1-0.1,0.1-0.2,0.1
					c-0.1,0-0.2,0-0.2-0.1c-0.1-0.1-0.1-0.2-0.1-0.3c0-0.1,0-0.2,0.1-0.3C16.5,20.7,16.6,20.7,16.7,20.7z M16.7,21.3
					c0.1,0,0.1,0,0.1-0.1c0,0,0.1-0.1,0.1-0.2c0-0.1,0-0.2-0.1-0.2c0,0-0.1-0.1-0.1-0.1s-0.1,0-0.1,0.1c0,0-0.1,0.1-0.1,0.2
					c0,0.1,0,0.2,0.1,0.2C16.6,21.3,16.6,21.3,16.7,21.3z"/>
				<path class="st1" d="M17.3,21.4h-0.1v-1h0.1V21.4z"/>
				<path class="st1" d="M17.7,20.7c0.1,0,0.2,0,0.2,0.1c0.1,0.1,0.1,0.2,0.1,0.3c0,0.1,0,0.2-0.1,0.3c-0.1,0.1-0.1,0.1-0.2,0.1
					c-0.1,0-0.2,0-0.2-0.1c-0.1-0.1-0.1-0.2-0.1-0.3c0-0.1,0-0.2,0.1-0.3C17.6,20.7,17.6,20.7,17.7,20.7z M17.7,21.3
					c0.1,0,0.1,0,0.1-0.1c0,0,0.1-0.1,0.1-0.2c0-0.1,0-0.2-0.1-0.2c0,0-0.1-0.1-0.1-0.1s-0.1,0-0.1,0.1c0,0-0.1,0.1-0.1,0.2
					c0,0.1,0,0.2,0.1,0.2C17.6,21.3,17.7,21.3,17.7,21.3z"/>
				<path class="st1" d="M18.3,21.5c0,0.1,0,0.2,0,0.2s-0.1,0-0.1,0c0,0-0.1,0-0.1,0v-0.1c0,0,0,0,0.1,0c0,0,0,0,0.1,0
					c0,0,0-0.1,0-0.1v-0.8h0.1V21.5z M18.3,20.5h-0.1v-0.1h0.1V20.5z"/>
				<path class="st1" d="M18.7,20.5h-0.1v-0.1h0.1V20.5z M18.7,21.4h-0.1v-0.7h0.1V21.4z"/>
				<path class="st1" d="M19.6,20.4c0.1,0,0.2,0,0.3,0.1c0.1,0.1,0.1,0.2,0.1,0.4c0,0.2,0,0.3-0.1,0.4c-0.1,0.1-0.2,0.1-0.3,0.1
					s-0.2,0-0.3-0.1c-0.1-0.1-0.1-0.2-0.1-0.4c0-0.2,0-0.3,0.1-0.4S19.5,20.4,19.6,20.4z M19.6,21.3c0.1,0,0.2,0,0.2-0.1
					c0.1-0.1,0.1-0.2,0.1-0.3c0-0.1,0-0.2-0.1-0.3c-0.1-0.1-0.1-0.1-0.2-0.1c-0.1,0-0.2,0-0.2,0.1c-0.1,0.1-0.1,0.2-0.1,0.3
					c0,0.1,0,0.2,0.1,0.3C19.5,21.3,19.5,21.3,19.6,21.3z M19.6,20.3h-0.1v-0.1h0.1V20.3z M19.8,20.3h-0.1v-0.1h0.1V20.3z"/>
				<path class="st1" d="M20.8,21.4c0,0.2-0.1,0.4-0.3,0.4c-0.1,0-0.2,0-0.2-0.1c-0.1,0-0.1-0.1-0.1-0.2h0.1c0,0.1,0.1,0.1,0.2,0.1
					c0.1,0,0.1,0,0.1-0.1s0-0.1,0-0.2v0c-0.1,0.1-0.1,0.1-0.2,0.1c-0.1,0-0.2,0-0.2-0.1c-0.1-0.1-0.1-0.2-0.1-0.3
					c0-0.1,0-0.2,0.1-0.3c0.1-0.1,0.1-0.1,0.2-0.1c0.1,0,0.1,0,0.2,0.1v-0.1h0.1V21.4z M20.7,21.2v-0.4c-0.1-0.1-0.1-0.1-0.2-0.1
					c-0.1,0-0.1,0-0.1,0.1s0,0.1,0,0.2c0,0.1,0,0.2,0,0.2s0.1,0.1,0.1,0.1C20.6,21.3,20.6,21.3,20.7,21.2z M20.7,20.4
					c0,0.1,0,0.1-0.1,0.1c0,0-0.1,0-0.1,0c-0.1,0-0.1,0-0.1,0c0,0-0.1-0.1-0.1-0.1h0.1c0,0.1,0,0.1,0.1,0.1
					C20.6,20.5,20.6,20.5,20.7,20.4L20.7,20.4z"/>
				<path class="st1" d="M21.4,20.8C21.4,20.8,21.3,20.8,21.4,20.8c-0.1,0-0.2,0-0.2,0.1v0.5H21v-0.7h0.1v0.1
					c0.1-0.1,0.1-0.1,0.2-0.1c0,0,0,0,0.1,0V20.8z"/>
				<path class="st1" d="M21.8,21.4c-0.1,0-0.2,0-0.2-0.1c-0.1-0.1-0.1-0.2-0.1-0.3s0-0.2,0.1-0.3c0.1-0.1,0.1-0.1,0.2-0.1
					c0.1,0,0.2,0,0.2,0.1c0.1,0.1,0.1,0.2,0.1,0.3v0h-0.5c0,0.1,0,0.1,0.1,0.2s0.1,0.1,0.1,0.1c0,0,0.1,0,0.1,0s0.1-0.1,0.1-0.1h0.1
					c0,0.1,0,0.1-0.1,0.2C21.9,21.4,21.8,21.4,21.8,21.4z M21.9,21c0-0.1,0-0.1-0.1-0.2c0,0-0.1-0.1-0.1-0.1c0,0-0.1,0-0.1,0.1
					c0,0-0.1,0.1-0.1,0.2H21.9z"/>
				<path class="st1" d="M22.3,20.8c0.1-0.1,0.1-0.1,0.2-0.1c0.2,0,0.2,0.1,0.2,0.3v0.5h-0.1V21c0-0.1,0-0.1,0-0.1c0,0-0.1,0-0.1,0
					c-0.1,0-0.1,0-0.2,0.1v0.5h-0.1v-0.7L22.3,20.8L22.3,20.8z"/>
				<path class="st1" d="M23.3,21.4c-0.1,0-0.2,0-0.2-0.1c-0.1-0.1-0.1-0.2-0.1-0.3c0-0.1,0-0.2,0.1-0.3c0.1-0.1,0.1-0.1,0.2-0.1
					c0.1,0,0.1,0,0.2,0.1c0.1,0,0.1,0.1,0.1,0.2h-0.1c0,0,0-0.1,0-0.1s-0.1,0-0.1,0c-0.1,0-0.1,0-0.1,0.1c0,0-0.1,0.1-0.1,0.2
					c0,0.1,0,0.2,0.1,0.2c0,0,0.1,0.1,0.1,0.1c0,0,0.1,0,0.1,0c0,0,0-0.1,0-0.1h0.1c0,0.1,0,0.1-0.1,0.2
					C23.4,21.4,23.3,21.4,23.3,21.4z"/>
				<path class="st1" d="M23.8,20.5h-0.1v-0.1h0.1V20.5z M23.8,21.4h-0.1v-0.7h0.1V21.4z"/>
				<path class="st1" d="M24.1,21.4H24v-1h0.1V21.4z"/>
				<path class="st1" d="M24.6,21.4c-0.1,0-0.2,0-0.2-0.1c-0.1-0.1-0.1-0.2-0.1-0.3s0-0.2,0.1-0.3c0.1-0.1,0.1-0.1,0.2-0.1
					c0.1,0,0.2,0,0.2,0.1c0.1,0.1,0.1,0.2,0.1,0.3v0h-0.5c0,0.1,0,0.1,0.1,0.2s0.1,0.1,0.1,0.1c0,0,0.1,0,0.1,0s0.1-0.1,0.1-0.1h0.1
					c0,0.1,0,0.1-0.1,0.2C24.7,21.4,24.6,21.4,24.6,21.4z M24.8,21c0-0.1,0-0.1-0.1-0.2c0,0-0.1-0.1-0.1-0.1c0,0-0.1,0-0.1,0.1
					c0,0-0.1,0.1-0.1,0.2H24.8z"/>
				<path class="st1" d="M25.4,20.8C25.4,20.8,25.3,20.8,25.4,20.8c-0.1,0-0.2,0-0.2,0.1v0.5H25v-0.7h0.1v0.1
					c0.1-0.1,0.1-0.1,0.2-0.1c0,0,0,0,0.1,0V20.8z"/>
				<path class="st1" d="M25.6,20.5h-0.1v-0.1h0.1V20.5z M25.6,21.4h-0.1v-0.7h0.1V21.4z"/>
				<path class="st1" d="M26.5,21.4c-0.1,0-0.2-0.1-0.3-0.2s-0.1-0.2-0.1-0.4c0-0.2,0-0.3,0.1-0.4c0.1-0.1,0.2-0.1,0.3-0.1
					c0.1,0,0.2,0,0.3,0.1c0.1,0.1,0.1,0.1,0.1,0.2h-0.1c0-0.1,0-0.1-0.1-0.2c0,0-0.1-0.1-0.2-0.1c-0.1,0-0.2,0-0.2,0.1
					s-0.1,0.2-0.1,0.3s0,0.2,0.1,0.3c0.1,0.1,0.1,0.1,0.2,0.1c0.1,0,0.1,0,0.2-0.1s0.1-0.1,0.1-0.2H27c0,0.1,0,0.2-0.1,0.2
					C26.8,21.4,26.7,21.4,26.5,21.4L26.5,21.4c0.2,0,0.2,0.1,0.2,0.2c0,0.1-0.1,0.1-0.2,0.1c0,0,0,0-0.1,0v-0.1c0,0,0,0,0.1,0
					c0.1,0,0.1,0,0.1-0.1C26.6,21.6,26.6,21.5,26.5,21.4L26.5,21.4z"/>
				<path class="st1" d="M27.6,21.4c-0.1,0.1-0.1,0.1-0.2,0.1c-0.1,0-0.1,0-0.2-0.1c0,0-0.1-0.1-0.1-0.2c0-0.2,0.1-0.3,0.4-0.3h0.1
					c0-0.1,0-0.1,0-0.1c0,0,0,0,0-0.1c0,0-0.1,0-0.1,0c-0.1,0-0.2,0-0.2,0.1h-0.1c0-0.2,0.1-0.2,0.3-0.2c0.1,0,0.2,0,0.2,0.1
					c0.1,0,0.1,0.1,0.1,0.2v0.5L27.6,21.4L27.6,21.4z M27.6,21.2v-0.2h-0.1c-0.2,0-0.3,0.1-0.3,0.2c0,0,0,0.1,0,0.1c0,0,0.1,0,0.1,0
					C27.4,21.3,27.4,21.3,27.6,21.2C27.5,21.3,27.6,21.3,27.6,21.2z"/>
				<path class="st1" d="M28,21.4h-0.1v-1H28V21.4z"/>
				<path class="st1" d="M28.3,21.4h-0.1v-0.7h0.1V21.4z"/>
				<path class="st1" d="M28.7,21.4c-0.2,0-0.2-0.1-0.2-0.2h0.1c0,0.1,0.1,0.1,0.2,0.1c0.1,0,0.1,0,0.1,0c0,0,0-0.1,0-0.1
					s0-0.1,0-0.1c0,0-0.1,0-0.2-0.1s-0.1,0-0.2-0.1c0,0-0.1-0.1-0.1-0.1c0-0.1,0-0.1,0.1-0.2c0,0,0.1-0.1,0.2-0.1
					c0.2,0,0.3,0.1,0.3,0.2h-0.1c0-0.1-0.1-0.1-0.1-0.1c0,0-0.1,0-0.1,0c0,0,0,0,0,0.1c0,0,0,0.1,0,0.1c0,0,0.1,0,0.2,0.1
					s0.1,0,0.2,0.1c0,0,0.1,0.1,0.1,0.1c0,0.1,0,0.1-0.1,0.2C28.9,21.4,28.9,21.4,28.7,21.4L28.7,21.4c0.2,0,0.2,0.1,0.2,0.2
					c0,0.1-0.1,0.1-0.2,0.1c0,0,0,0-0.1,0v-0.1c0,0,0,0,0.1,0c0.1,0,0.1,0,0.1-0.1C28.8,21.6,28.8,21.5,28.7,21.4L28.7,21.4z"/>
				<path class="st1" d="M30.1,21.4H30V21c0-0.1,0-0.1,0-0.1c0,0,0,0-0.1,0c-0.1,0-0.1,0-0.2,0.1v0.5h-0.1V21c0-0.1,0-0.1,0-0.1
					c0,0,0,0-0.1,0c-0.1,0-0.1,0-0.2,0.1v0.5h-0.1v-0.7h0.1v0.1c0.1-0.1,0.1-0.1,0.2-0.1c0.1,0,0.2,0,0.2,0.1c0-0.1,0.1-0.1,0.1-0.1
					s0.1,0,0.1,0c0.1,0,0.2,0.1,0.2,0.3V21.4z"/>
				<path class="st1" d="M30.8,21.4c-0.1,0.1-0.1,0.1-0.2,0.1c-0.1,0-0.1,0-0.2-0.1c0,0-0.1-0.1-0.1-0.2c0-0.2,0.1-0.3,0.4-0.3h0.1
					c0-0.1,0-0.1,0-0.1c0,0,0,0,0-0.1c0,0-0.1,0-0.1,0c-0.1,0-0.2,0-0.2,0.1h-0.1c0-0.2,0.1-0.2,0.3-0.2c0.1,0,0.2,0,0.2,0.1
					c0.1,0,0.1,0.1,0.1,0.2v0.5L30.8,21.4L30.8,21.4z M30.8,21.2v-0.2h-0.1c-0.2,0-0.3,0.1-0.3,0.2c0,0,0,0.1,0,0.1c0,0,0.1,0,0.1,0
					C30.6,21.3,30.6,21.3,30.8,21.2C30.7,21.3,30.7,21.3,30.8,21.2z"/>
				<path class="st1" d="M31.9,21.4c-0.1,0-0.3,0-0.3-0.1c-0.1-0.1-0.1-0.2-0.1-0.4s0-0.3,0.1-0.4s0.2-0.1,0.3-0.1
					c0.1,0,0.2,0,0.3,0.1c0.1,0.1,0.1,0.1,0.1,0.2h-0.1c0-0.1,0-0.1-0.1-0.2c-0.1,0-0.1-0.1-0.2-0.1c-0.1,0-0.2,0-0.2,0.1
					c-0.1,0.1-0.1,0.2-0.1,0.3s0,0.2,0.1,0.3c0.1,0.1,0.1,0.1,0.2,0.1c0.1,0,0.2,0,0.3-0.1V21h-0.3v-0.1h0.4v0.5h-0.1l0-0.1
					C32.1,21.4,32,21.4,31.9,21.4z"/>
				<path class="st1" d="M32.9,20.8C32.8,20.8,32.8,20.8,32.9,20.8c-0.1,0-0.2,0-0.2,0.1v0.5h-0.1v-0.7h0.1v0.1
					c0.1-0.1,0.1-0.1,0.2-0.1c0,0,0,0,0.1,0V20.8z"/>
				<path class="st1" d="M33.4,21.3c-0.1,0.1-0.1,0.1-0.2,0.1c-0.2,0-0.2-0.1-0.2-0.3v-0.5h0.1v0.5c0,0.1,0,0.1,0,0.1
					c0,0,0.1,0,0.1,0c0.1,0,0.1,0,0.2-0.1v-0.5h0.1v0.7L33.4,21.3L33.4,21.3z"/>
				<path class="st1" d="M33.8,20.8c0.1-0.1,0.1-0.1,0.2-0.1c0.1,0,0.2,0,0.2,0.1c0.1,0.1,0.1,0.2,0.1,0.3c0,0.1,0,0.2-0.1,0.3
					c-0.1,0.1-0.1,0.1-0.2,0.1c-0.1,0-0.1,0-0.2-0.1v0.1h-0.1v-1h0.1V20.8z M33.8,21.3c0.1,0.1,0.1,0.1,0.2,0.1c0.1,0,0.1,0,0.1-0.1
					s0-0.1,0-0.2c0-0.1,0-0.2,0-0.2c0,0-0.1-0.1-0.1-0.1c-0.1,0-0.1,0-0.2,0.1V21.3z"/>
				<path class="st1" d="M34.9,21.3c-0.1,0.1-0.1,0.1-0.2,0.1c-0.2,0-0.2-0.1-0.2-0.3v-0.5h0.1v0.5c0,0.1,0,0.1,0,0.1
					c0,0,0.1,0,0.1,0c0.1,0,0.1,0,0.2-0.1v-0.5H35v0.7L34.9,21.3L34.9,21.3z"/>
			</g>
		</g>
	</g>
</g>
</svg>
