<?xml version="1.0" encoding="utf-8"?>
<!-- Generator: Adobe Illustrator 27.5.0, SVG Export Plug-In . SVG Version: 6.00 Build 0)  -->
<svg version="1.1" id="Layer_2_00000016770411501070789830000013702901915793203338_"
	 xmlns="http://www.w3.org/2000/svg" xmlns:xlink="http://www.w3.org/1999/xlink" x="0px" y="0px" viewBox="0 0 40.7 50.3"
	 style="enable-background:new 0 0 40.7 50.3;" xml:space="preserve">
<style type="text/css">
	.st0{enable-background:new    ;}
	.st1{fill:#FFFFFF;}
	.st2{fill:#FFFFFF;fill-opacity:0;}
</style>
<g id="Layer_1-2">
	<g>
		<g class="st0">
			<path class="st1" d="M17,27.3C17.1,27.3,17.1,27.2,17,27.3c0-0.1,0-0.2,0-0.2C17,27.2,17,27.2,17,27.3z"/>
		</g>
		<g class="st0">
			<path class="st1" d="M38.8,19.8c-1.3-0.1-3,0-5.1,0.3L33,20.1l0.7-1c0.4-0.6,0.8-1.1,1-1.6c0.2-0.4,0.4-0.9,0.5-1.5
				c0.3-1.1,0.2-1.7-0.1-1.7c-0.1,0-0.3,0.2-0.5,0.6c-0.2,0.4-0.7,1.2-1.3,2.4l-1.5,3l-2.3,0.4c-1.7,0.3-3.1,0.6-4.3,0.9
				c-1.2,0.3-1.8,0.5-1.9,0.6c0,0.1,0,0.1,0,0.2c0,0.2,0.5,0.2,1.3,0.1c0.6-0.2,1.7-0.4,3.2-0.7c1.5-0.3,2.5-0.5,2.9-0.6
				c0.3-0.1,0.5-0.1,0.6-0.1c0,0,0,0.1-0.1,0.2c-0.2,0.2-0.2,0.4-0.2,0.5c0,0.2-0.2,0.7-0.5,1.4c-0.3,0.7-0.6,1.4-0.9,2.1
				c0,0-0.1,0-0.2,0c-0.4,0.1-0.7,0-1-0.1c-0.2-0.1-0.4-0.3-0.6-0.7c-0.2-0.4-0.5-0.6-0.7-0.6c-0.2,0-0.5,0.2-0.9,0.5l-0.6,0.6v-0.7
				c0-0.5-0.1-0.7-0.2-0.8c-0.2,0-0.3,0-0.4,0.1c-0.1,0.1-0.2,0.3-0.1,0.5c0,0.2,0,0.7-0.2,1.6c0,0-0.1,0.1-0.2,0.1
				c-0.2,0.1-0.3,0.2-0.5,0.3c-1.1,0.7-1.9,1.1-2.4,1.3c-0.5,0.2-0.9,0.1-1.1-0.1c-0.2-0.2-0.1-0.5,0-0.8c0.2-0.4,0.4-0.8,0.8-1.1
				c0.4-0.4,0.7-0.7,0.7-0.8c0-0.1,0-0.1,0-0.2c-0.1-0.2-0.5-0.1-1,0.4l-0.7,0.5l-0.6-0.2C19.2,25,19,25,18.9,24.9
				c-0.1,0-0.3,0-0.6,0.1c-0.4,0.1-0.8,0.3-1.1,0.7c-0.4,0.3-0.6,0.7-0.7,1.1c0,0.1,0,0.1,0,0.2c-0.3,0.1-0.8,0.2-1.5,0.5
				c-2,0.7-3.6,1-5,0.9c-1.4-0.1-2.6-0.6-3.6-1.5c-0.2-0.1-0.3-0.2-0.3-0.3S6,26.5,5.9,26.4c-0.1-0.1-0.1-0.2-0.2-0.2
				c0,0,0-0.1-0.1-0.2c0-0.1,0-0.2,0-0.3c0-0.1,0.1-0.2,0.1-0.4c0.1-0.2,0.1-0.3,0.2-0.5s0.1-0.3,0.2-0.6c0.4-1.1,0.7-1.7,0.9-1.9
				c0.4-0.4,1.4-1.2,3.1-2.3c1.7-1.2,3.1-2.1,4.1-2.7c1-0.6,2.1-1.2,3.5-1.8c1.3-0.6,2.3-1.1,2.9-1.2c0.7-0.2,1.3-0.4,1.7-0.4
				c0.3,0,0.4,0,0.5,0.1c0.1,0,0.1,0.1,0.1,0.3c0,0.2-0.2,0.6-0.7,1.1s-0.7,0.8-0.7,0.9c0.1,0.1,0.3,0.2,0.5,0.1
				c0.2-0.1,0.5-0.3,0.8-0.5c0.4-0.4,0.6-0.7,0.8-1c0.1-0.3,0.2-0.6,0.1-0.8c-0.1-0.2-0.2-0.4-0.5-0.5s-0.6-0.2-1-0.2
				c-0.4,0-0.9,0.1-1.5,0.3c-1.4,0.4-3.3,1.3-5.7,2.6c-2.3,1.3-4.5,2.7-6.5,4.1c-0.7,0.5-1,0.7-1,0.7c0,0,0.1-0.5,0.4-1.4
				c0.3-0.9,0.7-2,1.1-3.3c0.9-2.8,1.5-4.5,1.7-5.2c0.2-0.7,0.2-1.1,0.1-1.2c-0.2-0.1-0.3-0.1-0.4,0.1c-0.1,0.2-0.3,0.6-0.5,1.3
				c-0.2,0.8-0.8,2.4-1.6,4.9c-0.8,2.4-1.4,4-1.7,4.8c-0.1,0.3-0.3,0.7-0.5,1c-0.2,0.3-0.4,0.6-0.5,0.8c-0.4,0.5-0.7,1-0.9,1.3
				c-0.2,0.4-0.2,0.8-0.2,1.3c0,0.6-0.1,1.1-0.3,1.5c-0.2,0.6-0.6,1.4-1,2.6c-0.4,1.2-0.7,2.1-0.9,2.7c-0.2,0.7-0.3,1.2-0.3,1.8
				c0,0.5,0,0.9,0.1,1.1c0.1,0.1,0.2,0.2,0.3,0.2c0.2,0,0.3,0,0.4,0c0.1,0,0.2-0.1,0.2-0.2c0-0.1,0-0.1-0.1-0.2
				c0-0.1-0.1-0.1-0.2-0.1c-0.3-0.1-0.3-0.8,0.1-2.2c0.3-1.3,0.9-3,1.7-5l0.4-0.9l0.7,0.6c1.1,1,2.5,1.6,4.3,1.7
				c1.8,0.1,3.7-0.3,5.9-1.2c0.2-0.1,0.3-0.1,0.4-0.2c0,0.1,0.1,0.1,0.1,0.2C16.7,28,16.8,28,17,28c0.2,0,0.4,0,0.6-0.1
				c0.2-0.1,0.5-0.3,0.9-0.6l1-0.7v0.4c0,0.5,0.2,0.9,0.7,1.2c0.3,0.1,0.6,0.2,1,0.1c0.4-0.1,0.8-0.2,1.3-0.5c0.5-0.3,1-0.5,1.4-0.8
				c0.2-0.1,0.4-0.3,0.5-0.4c-0.2,1-0.3,1.5-0.3,1.6c0,0.1,0.1,0.2,0.2,0.2c0.2,0,0.6-0.5,1-1.5c0.2-0.4,0.4-0.8,0.6-1.1
				c0.2-0.4,0.4-0.6,0.5-0.7c0.2-0.2,0.3-0.3,0.4-0.3c0,0,0.1,0,0.2,0.2c0.2,0.4,0.5,0.6,0.7,0.8c0.2,0.2,0.5,0.3,0.8,0.3
				c0.2,0,0.5,0,0.6,0c-0.4,1.1-0.8,2.3-1.1,3.4c-0.5,2-0.7,3.3-0.5,4.1c0,0.1,0.1,0.2,0.1,0.3c0.1,0.1,0.1,0.1,0.3,0
				c0.1,0,0.2-0.1,0.2-0.1c0-0.1,0-0.2,0-0.5c0-0.6,0.1-1.5,0.3-2.6c0.2-1.1,0.6-2.3,1-3.6c0.3-0.8,0.8-1.9,1.5-3.5
				c0.7-1.6,1.1-2.5,1.2-2.6c0.1-0.1,0.8-0.2,2.1-0.4c1.2-0.1,2.3-0.2,3.2-0.2c0.7,0,1.2,0,1.5,0c0.3,0,0.6,0.1,0.8,0.2
				c0.2,0.1,0.4,0.2,0.5,0.2c0.1,0,0.2,0,0.3,0c0,0,0.1-0.1,0.1-0.2C40.8,20.2,40.1,19.9,38.8,19.8z M19.3,25.9c0,0-0.1,0.1-0.3,0.3
				c-0.2,0.2-0.5,0.3-0.7,0.5c-0.6,0.5-1,0.7-1.1,0.7c0,0-0.1,0-0.1,0c0,0,0,0,0-0.1v0c0,0,0-0.1,0-0.2c0-0.1,0.1-0.2,0.3-0.4
				c0.3-0.4,0.6-0.7,1-0.9c0.2-0.1,0.5-0.2,0.8-0.1C19.3,25.7,19.4,25.8,19.3,25.9z"/>
		</g>
		<rect class="st2" width="40.7" height="50.3"/>
	</g>
</g>
</svg>
