<?xml version="1.0" encoding="utf-8"?>
<!-- Generator: Adobe Illustrator 27.5.0, SVG Export Plug-In . SVG Version: 6.00 Build 0)  -->
<svg version="1.1" id="Layer_2_00000076576548726158695410000003516051427855388575_"
	 xmlns="http://www.w3.org/2000/svg" xmlns:xlink="http://www.w3.org/1999/xlink" x="0px" y="0px" viewBox="0 0 56 50.3"
	 style="enable-background:new 0 0 56 50.3;" xml:space="preserve">
<style type="text/css">
	.st0{fill:#FFFFFF;}
	.st1{enable-background:new    ;}
	.st2{fill:#FFFFFF;fill-opacity:0;}
</style>
<g id="Layer_1-2">
	<g>
		<g>
			<g>
				<path class="st0" d="M17.5,27.9v1.4h-2.1c0,0-2.6,0-2.9-2.7v-5.2H9.6V20h7.5v1.4h-3.2V26c0,2,1.9,1.9,1.9,1.9H17.5L17.5,27.9z"
					/>
			</g>
			<g>
				<path class="st0" d="M22.1,20H18v12.4h1.5v-3.1h2.7c2.5,0,4.4-2.1,4.4-4.6S24.6,20,22.1,20z M22.1,27.9h-2.7v-6.4h2.7
					c1.6,0.1,2.8,1.5,2.8,3.2S23.7,27.7,22.1,27.9z"/>
			</g>
			<g>
				<path class="st0" d="M51.9,20c-2.5,0-4.4,2.1-4.4,4.6s2,4.6,4.4,4.6h2.7c-0.1,1.8-1.9,1.7-1.9,1.7h-1.6v1.4h2.1
					c0,0,0.7,0,1.4-0.4c0.7-0.4,1.3-1,1.5-2.3V20H51.9L51.9,20z M54.6,27.9h-2.7c-1.6-0.1-2.8-1.5-2.8-3.2s1.2-3.1,2.8-3.2h2.7V27.9
					z"/>
			</g>
			<g>
				<path class="st0" d="M32.3,20c-2.7,0-4.9,2.1-4.9,4.6s2.2,4.6,4.9,4.6s4.9-2.1,4.9-4.6S35,20,32.3,20z M32.3,27.8
					c-1.8,0-3.3-1.4-3.3-3.1s1.5-3.1,3.3-3.1s3.3,1.4,3.3,3.1S34.2,27.8,32.3,27.8z"/>
			</g>
			<g>
				<path class="st0" d="M43.1,27.8c-1.7,0-3.2-1.4-3.2-3.1s1.4-3.1,3.2-3.1c1,0,2,0.5,2.5,1.3l1.2-0.9c-0.8-1.2-2.2-1.9-3.8-1.9
					c-2.6,0-4.7,2.1-4.7,4.6s2.1,4.6,4.7,4.6c1.5,0,2.9-0.7,3.7-1.9l-1.2-0.9C45.1,27.3,44.2,27.8,43.1,27.8z"/>
			</g>
			<g>
				<ellipse class="st0" cx="30.2" cy="18.4" rx="0.8" ry="0.8"/>
			</g>
			<g>
				<ellipse class="st0" cx="34.2" cy="18.4" rx="0.8" ry="0.8"/>
			</g>
			<g>
				<ellipse class="st0" cx="46.5" cy="30.5" rx="0.8" ry="0.8"/>
			</g>
			<g class="st1">
				<path class="st0" d="M21.1,30.3h-0.3v0.9h-0.1v-0.9h-0.3v-0.1h0.8V30.3z"/>
				<path class="st0" d="M21.7,31.1c-0.1,0.1-0.1,0.1-0.2,0.1c-0.2,0-0.2-0.1-0.2-0.3v-0.5h0.1V31c0,0.1,0,0.1,0,0.1
					c0,0,0.1,0,0.1,0c0.1,0,0.1,0,0.2-0.1v-0.5h0.1v0.7L21.7,31.1L21.7,31.1z M21.5,30.4h-0.1v-0.1h0.1V30.4z M21.7,30.4h-0.1v-0.1
					h0.1V30.4z"/>
				<path class="st0" d="M22.4,30.6C22.3,30.6,22.3,30.6,22.4,30.6c-0.1,0-0.2,0-0.2,0.1v0.5H22v-0.7h0.1v0.1
					c0.1-0.1,0.1-0.1,0.2-0.1c0,0,0,0,0.1,0V30.6z"/>
				<path class="st0" d="M23,31.2h-0.1l-0.2-0.4l-0.1,0.1v0.3h-0.1v-1h0.1v0.6l0.3-0.3H23l-0.3,0.3L23,31.2z"/>
				<path class="st0" d="M23.5,30.2h0.4c0.1,0,0.1,0,0.2,0c0.1,0,0.1,0,0.1,0.1s0,0.1,0,0.2c0,0.1,0,0.2-0.1,0.2
					c-0.1,0.1-0.2,0.1-0.3,0.1h-0.2v0.4h-0.1V30.2z M23.6,30.7h0.2c0.1,0,0.1,0,0.2,0s0.1-0.1,0.1-0.1c0,0,0-0.1,0-0.1
					c0,0,0-0.1-0.1-0.1c0,0-0.1,0-0.1,0h-0.2V30.7z"/>
				<path class="st0" d="M24.6,31.2c-0.2,0-0.3-0.1-0.3-0.2h0.1c0,0.1,0.1,0.1,0.2,0.1c0.1,0,0.1,0,0.1,0c0,0,0-0.1,0-0.1
					c0,0,0-0.1,0-0.1c0,0-0.1,0-0.2-0.1c-0.1,0-0.1,0-0.2-0.1s-0.1-0.1-0.1-0.1c0-0.1,0-0.1,0.1-0.2c0,0,0.1-0.1,0.2-0.1
					c0.2,0,0.3,0.1,0.3,0.2h-0.1c0-0.1-0.1-0.1-0.1-0.1c0,0-0.1,0-0.1,0c0,0,0,0,0,0.1c0,0,0,0,0,0.1c0,0,0.1,0,0.2,0.1
					s0.1,0,0.2,0.1c0,0,0.1,0.1,0.1,0.1c0,0.1,0,0.1-0.1,0.2C24.8,31.2,24.7,31.2,24.6,31.2z"/>
				<path class="st0" d="M25.2,30.3h-0.1v-0.1h0.1V30.3z M25.2,31.2h-0.1v-0.7h0.1V31.2z"/>
				<path class="st0" d="M26,31.2h-0.1l-0.2-0.4l-0.1,0.1v0.3h-0.1v-1h0.1v0.6l0.3-0.3h0.2l-0.3,0.3L26,31.2z"/>
				<path class="st0" d="M26.3,30.5c0.1,0,0.2,0,0.2,0.1c0.1,0.1,0.1,0.2,0.1,0.3s0,0.2-0.1,0.3c-0.1,0.1-0.1,0.1-0.2,0.1
					c-0.1,0-0.2,0-0.2-0.1C26,31.1,26,31,26,30.9s0-0.2,0.1-0.3C26.2,30.5,26.2,30.5,26.3,30.5z M26.3,31.1c0.1,0,0.1,0,0.1-0.1
					c0,0,0.1-0.1,0.1-0.2c0-0.1,0-0.2-0.1-0.2c0,0-0.1-0.1-0.1-0.1s-0.1,0-0.1,0.1c0,0-0.1,0.1-0.1,0.2c0,0.1,0,0.2,0.1,0.2
					C26.2,31.1,26.3,31.1,26.3,31.1z"/>
				<path class="st0" d="M26.9,31.2h-0.1v-1h0.1V31.2z"/>
				<path class="st0" d="M27.4,30.5c0.1,0,0.2,0,0.2,0.1c0.1,0.1,0.1,0.2,0.1,0.3s0,0.2-0.1,0.3c-0.1,0.1-0.1,0.1-0.2,0.1
					c-0.1,0-0.2,0-0.2-0.1c-0.1-0.1-0.1-0.2-0.1-0.3s0-0.2,0.1-0.3C27.2,30.5,27.3,30.5,27.4,30.5z M27.4,31.1c0.1,0,0.1,0,0.1-0.1
					c0,0,0.1-0.1,0.1-0.2c0-0.1,0-0.2-0.1-0.2c0,0-0.1-0.1-0.1-0.1s-0.1,0-0.1,0.1c0,0-0.1,0.1-0.1,0.2c0,0.1,0,0.2,0.1,0.2
					C27.3,31.1,27.3,31.1,27.4,31.1z"/>
				<path class="st0" d="M28,31.3c0,0.1,0,0.2,0,0.2s-0.1,0.1-0.1,0.1c0,0-0.1,0-0.1,0v-0.1c0,0,0,0,0.1,0c0,0,0,0,0.1,0
					s0-0.1,0-0.1v-0.8H28V31.3z M28,30.3h-0.1v-0.1H28V30.3z"/>
				<path class="st0" d="M28.3,30.3h-0.1v-0.1h0.1V30.3z M28.3,31.2h-0.1v-0.7h0.1V31.2z"/>
				<path class="st0" d="M29.3,30.2c0.1,0,0.2,0,0.3,0.1c0.1,0.1,0.1,0.2,0.1,0.4c0,0.2,0,0.3-0.1,0.4c-0.1,0.1-0.2,0.1-0.3,0.1
					c-0.1,0-0.2,0-0.3-0.1c-0.1-0.1-0.1-0.2-0.1-0.4c0-0.2,0-0.3,0.1-0.4C29,30.2,29.2,30.2,29.3,30.2z M29.3,31.1
					c0.1,0,0.2,0,0.2-0.1c0.1-0.1,0.1-0.2,0.1-0.3c0-0.1,0-0.2-0.1-0.3c-0.1-0.1-0.1-0.1-0.2-0.1c-0.1,0-0.2,0-0.2,0.1
					S29,30.6,29,30.7c0,0.1,0,0.2,0.1,0.3C29.1,31.1,29.2,31.1,29.3,31.1z M29.2,30.1h-0.1V30h0.1V30.1z M29.5,30.1h-0.1V30h0.1
					V30.1z"/>
				<path class="st0" d="M30.5,31.2c0,0.2-0.1,0.4-0.3,0.4c-0.1,0-0.2,0-0.2-0.1c-0.1,0-0.1-0.1-0.1-0.2H30c0,0.1,0.1,0.1,0.2,0.1
					c0.1,0,0.1,0,0.1-0.1c0,0,0-0.1,0-0.2v0c-0.1,0.1-0.1,0.1-0.2,0.1c-0.1,0-0.2,0-0.2-0.1c-0.1-0.1-0.1-0.2-0.1-0.3
					c0-0.1,0-0.2,0.1-0.3s0.1-0.1,0.2-0.1c0.1,0,0.1,0,0.2,0.1v-0.1h0.1V31.2z M30.4,31v-0.4c-0.1-0.1-0.1-0.1-0.2-0.1
					c-0.1,0-0.1,0-0.1,0.1c0,0,0,0.1,0,0.2c0,0.1,0,0.2,0,0.2c0,0,0.1,0.1,0.1,0.1C30.2,31.1,30.3,31.1,30.4,31z M30.4,30.2
					c0,0.1,0,0.1-0.1,0.1c0,0-0.1,0-0.1,0c-0.1,0-0.1,0-0.1,0S30,30.3,30,30.2h0.1c0,0.1,0,0.1,0.1,0.1
					C30.3,30.3,30.3,30.3,30.4,30.2L30.4,30.2z"/>
				<path class="st0" d="M31,30.6C31,30.6,31,30.6,31,30.6c-0.1,0-0.2,0-0.2,0.1v0.5h-0.1v-0.7h0.1v0.1c0.1-0.1,0.1-0.1,0.2-0.1
					c0,0,0,0,0.1,0V30.6z"/>
				<path class="st0" d="M31.4,31.2c-0.1,0-0.2,0-0.2-0.1c-0.1-0.1-0.1-0.2-0.1-0.3c0-0.1,0-0.2,0.1-0.3c0.1-0.1,0.1-0.1,0.2-0.1
					c0.1,0,0.2,0,0.2,0.1c0.1,0.1,0.1,0.2,0.1,0.3v0h-0.5c0,0.1,0,0.2,0.1,0.2s0.1,0.1,0.1,0.1c0,0,0.1,0,0.1,0s0.1-0.1,0.1-0.1h0.1
					c0,0.1,0,0.1-0.1,0.2C31.6,31.2,31.5,31.2,31.4,31.2z M31.6,30.8c0-0.1,0-0.1-0.1-0.2c0,0-0.1-0.1-0.1-0.1c0,0-0.1,0-0.1,0.1
					c0,0-0.1,0.1-0.1,0.2H31.6z"/>
				<path class="st0" d="M32,30.6c0.1-0.1,0.1-0.1,0.2-0.1c0.2,0,0.2,0.1,0.2,0.3v0.5h-0.1v-0.5c0-0.1,0-0.1,0-0.1c0,0-0.1,0-0.1,0
					c-0.1,0-0.1,0-0.2,0.1v0.5h-0.1v-0.7L32,30.6L32,30.6z"/>
				<path class="st0" d="M32.9,31.2c-0.1,0-0.2,0-0.2-0.1c-0.1-0.1-0.1-0.2-0.1-0.3s0-0.2,0.1-0.3c0.1-0.1,0.1-0.1,0.2-0.1
					c0.1,0,0.1,0,0.2,0.1c0.1,0,0.1,0.1,0.1,0.2h-0.1c0,0,0-0.1,0-0.1c0,0-0.1,0-0.1,0c-0.1,0-0.1,0-0.1,0.1c0,0-0.1,0.1-0.1,0.2
					c0,0.1,0,0.2,0.1,0.2c0,0,0.1,0.1,0.1,0.1c0,0,0.1,0,0.1,0c0,0,0-0.1,0-0.1h0.1c0,0.1,0,0.1-0.1,0.2
					C33.1,31.2,33,31.2,32.9,31.2z"/>
				<path class="st0" d="M33.4,30.3h-0.1v-0.1h0.1V30.3z M33.4,31.2h-0.1v-0.7h0.1V31.2z"/>
				<path class="st0" d="M33.7,31.2h-0.1v-1h0.1V31.2z"/>
				<path class="st0" d="M34.2,31.2c-0.1,0-0.2,0-0.2-0.1c-0.1-0.1-0.1-0.2-0.1-0.3c0-0.1,0-0.2,0.1-0.3c0.1-0.1,0.1-0.1,0.2-0.1
					c0.1,0,0.2,0,0.2,0.1c0.1,0.1,0.1,0.2,0.1,0.3v0H34c0,0.1,0,0.2,0.1,0.2c0,0,0.1,0.1,0.1,0.1c0,0,0.1,0,0.1,0s0.1-0.1,0.1-0.1
					h0.1c0,0.1,0,0.1-0.1,0.2C34.4,31.2,34.3,31.2,34.2,31.2z M34.4,30.8c0-0.1,0-0.1-0.1-0.2c0,0-0.1-0.1-0.1-0.1
					c0,0-0.1,0-0.1,0.1c0,0-0.1,0.1-0.1,0.2H34.4z"/>
				<path class="st0" d="M35.1,30.6C35,30.6,35,30.6,35.1,30.6c-0.1,0-0.2,0-0.2,0.1v0.5h-0.1v-0.7h0.1v0.1c0.1-0.1,0.1-0.1,0.2-0.1
					c0,0,0,0,0.1,0V30.6z"/>
				<path class="st0" d="M35.3,30.3h-0.1v-0.1h0.1V30.3z M35.3,31.2h-0.1v-0.7h0.1V31.2z"/>
				<path class="st0" d="M36.2,31.2c-0.1,0-0.2-0.1-0.3-0.2s-0.1-0.2-0.1-0.4c0-0.2,0-0.3,0.1-0.4c0.1-0.1,0.2-0.1,0.3-0.1
					c0.1,0,0.2,0,0.3,0.1c0.1,0.1,0.1,0.1,0.1,0.2h-0.1c0-0.1,0-0.1-0.1-0.2c0,0-0.1-0.1-0.2-0.1c-0.1,0-0.2,0-0.2,0.1
					c-0.1,0.1-0.1,0.2-0.1,0.3c0,0.1,0,0.2,0.1,0.3c0.1,0.1,0.1,0.1,0.2,0.1c0.1,0,0.1,0,0.2-0.1s0.1-0.1,0.1-0.2h0.1
					c0,0.1,0,0.2-0.1,0.2C36.5,31.2,36.4,31.2,36.2,31.2L36.2,31.2c0.2,0.1,0.2,0.1,0.2,0.2c0,0.1-0.1,0.1-0.2,0.1c0,0,0,0-0.1,0
					v-0.1c0,0,0,0,0.1,0c0.1,0,0.1,0,0.1-0.1C36.3,31.4,36.2,31.3,36.2,31.2L36.2,31.2z"/>
				<path class="st0" d="M37.2,31.2c-0.1,0.1-0.1,0.1-0.2,0.1c-0.1,0-0.1,0-0.2-0.1c0,0-0.1-0.1-0.1-0.2c0-0.2,0.1-0.3,0.4-0.3h0.1
					c0-0.1,0-0.1,0-0.1c0,0,0,0,0-0.1c0,0-0.1,0-0.1,0c-0.1,0-0.2,0-0.2,0.1h-0.1c0-0.2,0.1-0.2,0.3-0.2c0.1,0,0.2,0,0.2,0.1
					c0.1,0,0.1,0.1,0.1,0.2v0.5L37.2,31.2L37.2,31.2z M37.2,31v-0.2h-0.1c-0.2,0-0.3,0.1-0.3,0.2c0,0,0,0.1,0,0.1c0,0,0.1,0,0.1,0
					C37.1,31.1,37.1,31.1,37.2,31C37.2,31.1,37.2,31.1,37.2,31z"/>
				<path class="st0" d="M37.7,31.2h-0.1v-1h0.1V31.2z"/>
				<path class="st0" d="M38,31.2h-0.1v-0.7H38V31.2z"/>
				<path class="st0" d="M38.4,31.2c-0.2,0-0.2-0.1-0.2-0.2h0.1C38.2,31.1,38.3,31.1,38.4,31.2c0.1-0.1,0.1-0.1,0.2-0.1s0-0.1,0-0.1
					c0,0,0-0.1,0-0.1s-0.1,0-0.2-0.1c-0.1,0-0.1,0-0.2-0.1c0,0-0.1-0.1-0.1-0.1c0-0.1,0-0.1,0.1-0.2c0,0,0.1-0.1,0.2-0.1
					c0.2,0,0.3,0.1,0.3,0.2h-0.1c0-0.1-0.1-0.1-0.1-0.1c0,0-0.1,0-0.1,0c0,0,0,0,0,0.1c0,0,0,0,0,0.1c0,0,0.1,0,0.2,0.1
					c0.1,0,0.1,0,0.2,0.1s0.1,0.1,0.1,0.1c0,0.1,0,0.1-0.1,0.2C38.6,31.2,38.5,31.2,38.4,31.2L38.4,31.2c0.2,0,0.2,0.1,0.2,0.2
					c0,0.1-0.1,0.1-0.2,0.1c0,0,0,0-0.1,0v-0.1c0,0,0,0,0.1,0c0.1,0,0.1,0,0.1-0.1C38.5,31.4,38.4,31.3,38.4,31.2L38.4,31.2z"/>
				<path class="st0" d="M39.8,31.2h-0.1v-0.5c0-0.1,0-0.1,0-0.1c0,0,0,0-0.1,0c-0.1,0-0.1,0-0.2,0.1v0.5h-0.1v-0.5
					c0-0.1,0-0.1,0-0.1c0,0,0,0-0.1,0c-0.1,0-0.1,0-0.2,0.1v0.5h-0.1v-0.7H39v0.1c0.1-0.1,0.1-0.1,0.2-0.1c0.1,0,0.2,0,0.2,0.1
					c0-0.1,0.1-0.1,0.1-0.1s0.1,0,0.1,0c0.1,0,0.2,0.1,0.2,0.3V31.2z"/>
				<path class="st0" d="M40.4,31.2c-0.1,0.1-0.1,0.1-0.2,0.1c-0.1,0-0.1,0-0.2-0.1c0,0-0.1-0.1-0.1-0.2c0-0.2,0.1-0.3,0.4-0.3h0.1
					c0-0.1,0-0.1,0-0.1c0,0,0,0,0-0.1c0,0-0.1,0-0.1,0c-0.1,0-0.2,0-0.2,0.1H40c0-0.2,0.1-0.2,0.3-0.2c0.1,0,0.2,0,0.2,0.1
					c0.1,0,0.1,0.1,0.1,0.2v0.5L40.4,31.2L40.4,31.2z M40.4,31v-0.2h-0.1c-0.2,0-0.3,0.1-0.3,0.2c0,0,0,0.1,0,0.1c0,0,0.1,0,0.1,0
					C40.3,31.1,40.3,31.1,40.4,31C40.4,31.1,40.4,31.1,40.4,31z"/>
				<path class="st0" d="M41.5,31.2c-0.1,0-0.3,0-0.3-0.1c-0.1-0.1-0.1-0.2-0.1-0.4c0-0.2,0-0.3,0.1-0.4s0.2-0.1,0.3-0.1
					c0.1,0,0.2,0,0.3,0.1c0.1,0.1,0.1,0.1,0.1,0.2h-0.1c0-0.1,0-0.1-0.1-0.2s-0.1-0.1-0.2-0.1c-0.1,0-0.2,0-0.2,0.1
					s-0.1,0.2-0.1,0.3c0,0.1,0,0.2,0.1,0.3c0.1,0.1,0.1,0.1,0.2,0.1c0.1,0,0.2,0,0.3-0.1v-0.2h-0.3v-0.1H42v0.5h-0.1l0-0.1
					C41.8,31.2,41.7,31.2,41.5,31.2z"/>
				<path class="st0" d="M42.5,30.6C42.5,30.6,42.5,30.6,42.5,30.6c-0.1,0-0.2,0-0.2,0.1v0.5h-0.1v-0.7h0.1v0.1
					c0.1-0.1,0.1-0.1,0.2-0.1c0,0,0,0,0.1,0V30.6z"/>
				<path class="st0" d="M43,31.1c-0.1,0.1-0.1,0.1-0.2,0.1c-0.2,0-0.2-0.1-0.2-0.3v-0.5h0.1V31c0,0.1,0,0.1,0,0.1c0,0,0.1,0,0.1,0
					c0.1,0,0.1,0,0.2-0.1v-0.5h0.1v0.7L43,31.1L43,31.1z"/>
				<path class="st0" d="M43.5,30.6c0.1-0.1,0.1-0.1,0.2-0.1c0.1,0,0.2,0,0.2,0.1c0,0.1,0.1,0.2,0.1,0.3c0,0.1,0,0.2-0.1,0.3
					c-0.1,0.1-0.1,0.1-0.2,0.1c-0.1,0-0.1,0-0.2-0.1v0.1h-0.1v-1h0.1V30.6z M43.5,31.1c0.1,0.1,0.1,0.1,0.2,0.1c0.1,0,0.1,0,0.1-0.1
					c0,0,0-0.1,0-0.2c0-0.1,0-0.2,0-0.2c0,0-0.1-0.1-0.1-0.1c-0.1,0-0.1,0-0.2,0.1V31.1z"/>
				<path class="st0" d="M44.6,31.1c-0.1,0.1-0.1,0.1-0.2,0.1c-0.2,0-0.2-0.1-0.2-0.3v-0.5h0.1V31c0,0.1,0,0.1,0,0.1
					c0,0,0.1,0,0.1,0c0.1,0,0.1,0,0.2-0.1v-0.5h0.1v0.7L44.6,31.1L44.6,31.1z"/>
			</g>
		</g>
		<rect class="st2" width="56" height="50.3"/>
	</g>
</g>
</svg>
